# xmcd
#
# Track frame offsets:
#         150
#       34534
#       66987
#      102085
#      121465
#      156210
#      175748
#      216900
#      234164
#      289680
#
# Disc length:   4482 seconds
#
# Revision:        0
# Processed by: cddbd v1.5.2PL0 Copyright (c) Steve Scherf et al.
# Submitted via: libcddb 1.3.2
#
DISCID=8411800a
DTITLE=Wynton Marsalis and Eric Clapton - play the blues
DYEAR=2011
DGENRE=blues
TTITLE0=Ice Cream
TTITLE1=Forty-Four
TTITLE2=Joe Turner's Blues
TTITLE3=The Last Time
TTITLE4=Careless Love
TTITLE5=Kidman Blues
TTITLE6=Layla
TTITLE7=Joliet Bound
TTITLE8=Just A Closer Walk With Thee
TTITLE9=Corrine, Corrina
EXTD=Disc 1
EXTT0=
EXTT1=
EXTT2=
EXTT3=
EXTT4=
EXTT5=
EXTT6=
EXTT7=
EXTT8=
EXTT9=
PLAYORDER=
